<svg xmlns="http://www.w3.org/2000/svg" width="144" height="144" viewBox="0 0 144 144"><path d="M72 0c-39.756 0-72 32.238-72 72 0 31.812 20.628 58.8 49.242 68.322 3.594.666 4.758-1.566 4.758-3.462v-13.404c-20.028 4.356-24.198-8.496-24.198-8.496-3.276-8.322-7.998-10.536-7.998-10.536-6.534-4.47.498-4.374.498-4.374 7.23.504 11.034 7.422 11.034 7.422 6.42 11.004 16.842 7.824 20.952 5.982.642-4.65 2.508-7.83 4.572-9.624-15.99-1.83-32.802-8.004-32.802-35.586 0-7.866 2.814-14.286 7.416-19.326-.744-1.818-3.21-9.144.702-19.056 0 0 6.048-1.932 19.806 7.38 5.742-1.596 11.898-2.394 18.018-2.424 6.12.03 12.282.828 18.036 2.424 13.746-9.312 19.782-7.38 19.782-7.38 3.918 9.918 1.452 17.244.708 19.056 4.62 5.04 7.41 11.466 7.41 19.326 0 27.654-16.842 33.744-32.874 35.526 2.58 2.232 4.938 6.612 4.938 13.332v19.758c0 1.914 1.152 4.164 4.806 3.456 28.59-9.534 49.194-36.516 49.194-68.316 0-39.762-32.238-72-72-72z"/></svg>
